<svg xmlns="http://www.w3.org/2000/svg" width="1000" height="720" viewBox="0 0 1000 720" role="img" aria-labelledby="title desc">
<title id="title">SECOND FLOOR</title><desc id="desc">Buffy front-left, Dawn rear-left, Joyce rear-right, bathroom front-right, connected central hall and landing. Front entrance and street are at the bottom. Clean reference-traced orientation plan; dimensions and furniture are not surveyed.</desc>
<defs><pattern id="paper" width="12" height="12" patternUnits="userSpaceOnUse"><path d="M12 0H0V12" fill="none" stroke="#dcd4bf" stroke-width=".35" opacity=".45"/></pattern></defs>
<style>.wall{fill:none;stroke:#4b463d;stroke-width:2.3;stroke-linecap:square;stroke-linejoin:miter}.partition{fill:none;stroke:#706757;stroke-width:1.4}.furniture{fill:#f8f5eb;stroke:#aa9f87;stroke-width:.85}.label{font:600 7.5px Arial,sans-serif;fill:#413c33;text-anchor:middle}.small{font:5px Arial,sans-serif;fill:#71664f;text-anchor:middle}.door{fill:none;stroke:#9c9077;stroke-width:.75}.window{fill:none;stroke:#62929a;stroke-width:1}.dash{fill:none;stroke:#ac9b79;stroke-width:.8;stroke-dasharray:2 2}</style>
<rect width="1000" height="720" fill="#eee7d8"/><rect x="20" y="20" width="960" height="680" rx="16" fill="#f8f4e9" stroke="#d1c4aa"/><rect x="20" y="20" width="960" height="680" rx="16" fill="url(#paper)"/>
<text x="54" y="59" fill="#4b4232" font-family="Arial,sans-serif" font-size="25" font-weight="700">1630 REVELLO DRIVE</text><text x="54" y="84" fill="#786c56" font-family="Arial,sans-serif" font-size="15">SECOND FLOOR</text>
<text x="939" y="56" text-anchor="end" fill="#786c56" font-family="Arial,sans-serif" font-size="12">REAR / GARDEN ↑</text>
<g transform="translate(113 96) scale(2)">
<!-- Upper floor: reference x 69–317, y 22–262. -->
<path d="M69 84H170V49H252V23H294L317 46V173H305V188H317V243H280V262H217V243H173V262H111V243H69Z" fill="#f4ead5"/>
<path d="M69 84H170V152H69Z" fill="#e2e5d1"/>
<path d="M69 154H172V242H171V260H112V243H69Z" fill="#e6d9e5"/>
<path d="M171 49H252V23H294L317 46V173H305V186H219V111H211V92H172Z" fill="#dce4d7"/>
<path d="M218 188H317V242H280V262H218Z" fill="#dce8e6"/>
<!-- Keep each notch and projection in the supplied upper outline. -->
<path d="M69 84H170V49H220M240 49H252V23H294L317 46V174H305M305 188H317V243H280V262H217V243H173V262H111V243H69V84" class="wall"/>
<!-- Dawn's room and closet/ensuite wall. -->
<path d="M69 152H168M170 84V113M170 138V175M69 126H103V152M111 152V141H159V129" class="wall"/>
<!-- Central hall and stair enclosure; all bedrooms open from the hall. -->
<path d="M172 108H195M209 109H218V189M172 110V119M172 151V176M172 200V213M172 237V243M218 209V215M218 237V242M218 188H277M299 188H305" class="wall"/>
<path d="M172 214H191M210 214H218M174 238H212" class="partition"/>
<!-- Door leaves/arcs in their reference openings. -->
<path d="M170 113H149A21 21 0 0 0 170 134M172 176H150A22 22 0 0 1 172 198M195 109V90A19 19 0 0 1 214 109M277 188V208A20 20 0 0 0 297 188M172 214V236M218 215H238A22 22 0 0 1 218 237" class="door"/>
<!-- Reference furniture: one bed in each bedroom. -->
<rect x="116" y="90" width="38" height="49" class="furniture"/><rect x="121" y="96" width="27" height="13" class="furniture"/>
<rect x="81" y="181" width="55" height="56" class="furniture"/><rect x="85" y="187" width="45" height="13" class="furniture"/>
<rect x="234" y="61" width="47" height="49" class="furniture"/><rect x="240" y="66" width="34" height="11" class="furniture"/>
<rect x="295" y="114" width="16" height="50" rx="2" class="furniture"/><path d="M172 55l15-5 10 14-13 10Z" class="furniture"/>
<rect x="224" y="241" width="39" height="16" rx="8" class="furniture"/><rect x="286" y="231" width="24" height="9" class="furniture"/>
<ellipse cx="233" cy="197" rx="5" ry="7" class="furniture"/>
<path d="M72 89H83M69 175V197M69 209V233M317 62V86M317 111V135M229 261H265" class="window"/>
<rect x="199" y="122" width="19" height="79" fill="#f4eedd" stroke="#51493c" stroke-width="1.6"/><path d="M199 127.64h19" class="partition"/><path d="M199 133.29h19" class="partition"/><path d="M199 138.93h19" class="partition"/><path d="M199 144.57h19" class="partition"/><path d="M199 150.21h19" class="partition"/><path d="M199 155.86h19" class="partition"/><path d="M199 161.50h19" class="partition"/><path d="M199 167.14h19" class="partition"/><path d="M199 172.79h19" class="partition"/><path d="M199 178.43h19" class="partition"/><path d="M199 184.07h19" class="partition"/><path d="M199 189.71h19" class="partition"/><path d="M199 195.36h19" class="partition"/><path d="M208.5 129V194m-2-4l2 4 2-4" fill="none" stroke="#756a56" stroke-width=".85"/><text x="208.5" y="211" class="label">DOWN</text><text x="94" y="103" class="label">DAWN’S</text><text x="94" y="111" class="small">rear-left bedroom</text><text x="120" y="172" class="label">BUFFY’S BEDROOM</text><text x="120" y="180" class="small">front-left</text><text x="255" y="119" class="label">JOYCE’S</text><text x="255" y="127" class="small">BEDROOM · rear-right</text><text x="270" y="217" class="label">BATHROOM</text><text x="270" y="225" class="small">front-right</text><text x="185" y="158" class="label">HALL</text><text x="194" y="230" class="label">LANDING</text></g>
<text x="500" y="687" text-anchor="middle" fill="#786c56" font-family="Arial,sans-serif" font-size="13" letter-spacing="1.5">FRONT / STREET ↓</text>
<text x="54" y="654" fill="#8a7c63" font-family="Arial,sans-serif" font-size="10">Layout follows your supplied plan.</text><text x="54" y="669" fill="#8a7c63" font-family="Arial,sans-serif" font-size="10">Orientation guide · not to scale</text>
</svg>